<?xml version="1.0" standalone="no"?>
<!DOCTYPE svg PUBLIC "-//W3C//DTD SVG 20010904//EN"
 "http://www.w3.org/TR/2001/REC-SVG-20010904/DTD/svg10.dtd">
<svg version="1.0" xmlns="http://www.w3.org/2000/svg"
 width="260.000000pt" height="260.000000pt" viewBox="0 0 260.000000 260.000000"
 preserveAspectRatio="xMidYMid meet">
<metadata>
Created by potrace 1.14, written by Peter Selinger 2001-2017
</metadata>
<g transform="translate(0.000000,260.000000) scale(0.100000,-0.100000)"
fill="#000000" stroke="none">
<path d="M161 2583 c-48 -17 -107 -71 -137 -124 -18 -33 -19 -75 -22 -1133 -3
-1234 -6 -1172 68 -1246 82 -82 -30 -75 1209 -78 1243 -3 1167 -7 1245 72 81
81 76 4 76 1222 0 1177 2 1142 -56 1212 -15 17 -47 44 -73 59 l-46 28 -1110 2
c-982 1 -1115 0 -1154 -14z"/>
</g>
</svg>
