<svg width="120" height="87" viewBox="0 0 120 87" fill="none" xmlns="http://www.w3.org/2000/svg">
<path d="M118.626 86.3597H87.5331C87.0917 86.3597 86.6764 86.1473 86.4187 85.7868L73.1346 67.2458L59.7134 85.9773C59.542 86.2172 59.2651 86.3584 58.9704 86.3584H37.8716C35.6729 86.3584 33.8744 84.5585 33.8758 82.3598V82.3187C33.8758 79.8417 33.5742 77.4388 32.9985 75.14C29.7868 62.1273 18.0338 52.4812 4.03417 52.4812H3.99305C1.79708 52.4826 0 50.6869 0 48.4909V37.8071C0 35.6427 1.74773 33.8689 3.91218 33.8772C4.79632 33.8813 5.69006 33.8456 6.59203 33.773C21.8966 32.5379 33.7743 19.6006 33.8772 4.24664C33.8785 4.09174 33.8785 3.93822 33.8772 3.78469C33.8593 1.70387 35.5152 0 37.5961 0H48.4895C50.6965 0 52.4867 1.79022 52.4853 3.99853V4.03965C52.4853 14.5027 57.8724 23.7102 66.0285 29.0329L57.8546 40.4418C57.7587 40.3773 57.6627 40.3143 57.5668 40.2457C57.4708 40.1868 57.3749 40.1183 57.2748 40.0497C51.6451 36.1663 46.7432 30.6504 43.5849 24.6382C43.4712 24.423 43.3615 24.2132 43.2518 23.998C43.2285 23.9528 43.2011 23.9062 43.1833 23.861C38.9531 32.1692 32.1623 38.9586 23.861 43.1806C23.9062 43.2039 23.9528 43.2258 23.998 43.2491C24.2132 43.3588 24.423 43.4725 24.6327 43.5822C24.8931 43.7193 25.144 43.8605 25.3962 44.003C25.6526 44.1442 25.9075 44.2909 26.1543 44.4375C30.3899 46.9461 34.224 50.1125 37.4124 53.8684C37.5727 54.0507 37.7276 54.2385 37.8825 54.4263C37.9058 54.4537 37.9333 54.4853 37.9511 54.5127C39.9524 56.9294 41.6206 59.6024 43.1052 62.3631C43.1326 62.4083 43.1559 62.4549 43.1778 62.5002C44.2607 64.6344 45.1791 66.8688 45.9056 69.1799L95.0436 0.574352C95.3013 0.215211 95.7166 0.00137211 96.158 0.00137211H118.625C119.741 0.00137211 120.389 1.26385 119.739 2.16993L90.3706 43.1806L119.742 84.1912C120.39 85.0973 119.742 86.3597 118.626 86.3597Z" fill="#25262B"/>
</svg>
